<?xml version="1.0" encoding="utf-8"?>
<!-- Generator: Adobe Illustrator 26.3.1, SVG Export Plug-In . SVG Version: 6.00 Build 0)  -->
<svg version="1.1" id="Layer_1" xmlns="http://www.w3.org/2000/svg" xmlns:xlink="http://www.w3.org/1999/xlink" x="0px" y="0px"
	 viewBox="0 0 256 256" style="enable-background:new 0 0 256 256;" xml:space="preserve">
<style type="text/css">
	.st0{fill:url(#SVGID_1_);}
	.st1{fill:url(#SVGID_00000001647706283130045390000016548697848552580013_);}
	.st2{fill:#FFFDFD;}
	.st3{fill:#FFFFFF;}
</style>
<g>
	<g>
		
			<radialGradient id="SVGID_1_" cx="-245.7544" cy="1611.7852" r="107.8864" gradientTransform="matrix(1.14 0 0 1.12 408.16 -1676.2034)" gradientUnits="userSpaceOnUse">
			<stop  offset="0" style="stop-color:#9CD6E9"/>
			<stop  offset="0.43" style="stop-color:#00A8DC"/>
			<stop  offset="0.99" style="stop-color:#006099"/>
			<stop  offset="1" style="stop-color:#006099"/>
		</radialGradient>
		<path class="st0" d="M128,0c-2,0-3.9,0.5-5.6,1.5L18.5,60.1c-3.4,1.9-5.6,5.5-5.6,9.4v117.1c0,3.9,2.1,7.5,5.6,9.4l103.9,58.6
			c3.5,1.9,7.7,1.9,11.2,0l104-58.6c3.4-1.9,5.6-5.5,5.6-9.4V69.5c0-3.9-2.1-7.5-5.6-9.4l-104-58.6C131.8,0.5,129.9,0,128,0z"/>
		<g>
			
				<radialGradient id="SVGID_00000147196737573483090010000001401558737661809335_" cx="-1912.4203" cy="1095.764" r="98.981" gradientTransform="matrix(0.94 -0.53 0.54 0.92 1333.8547 -1896.2544)" gradientUnits="userSpaceOnUse">
				<stop  offset="0" style="stop-color:#9CD6E9"/>
				<stop  offset="0.43" style="stop-color:#00A8DC"/>
				<stop  offset="0.99" style="stop-color:#006099"/>
				<stop  offset="1" style="stop-color:#006099"/>
			</radialGradient>
			<polygon style="fill:url(#SVGID_00000147196737573483090010000001401558737661809335_);" points="127.6,16.1 28,72.4 28,185 
				127.6,241.2 227.2,185 227.2,72.4 			"/>
			<path class="st2" d="M127.6,241.7l-100-56.5v-113l0.2-0.1l99.8-56.4l0.2,0.1l99.8,56.4v113l-0.2,0.1L127.6,241.7z M28.4,184.7
				l99.2,56l99.2-56v-112l-99.2-56.1L28.4,72.7V184.7z"/>
		</g>
		<g>
			<path class="st3" d="M128.1,67.7c1.1,0.7,2.1,1.5,3.1,2.4c4.5,4.3,9,8.7,13.5,13c2.5,2.4,2.5,4.5,0,6.9
				c-3.5,3.4-7.1,6.8-10.6,10.2c-0.6,0.5-0.8,1.2-0.5,1.9c2.8,10.5,14.6,15.5,24.5,10.6c0.6-0.2,0.9-0.8,0.9-1.4c0-6,0-12,0-17.8
				c-0.1-2.1,1.1-4.1,3.1-4.9c5.7-2.7,11.3-5.4,16.8-8.1c1.4-0.7,2.9-0.9,4.4-0.7c2.2,0.1,3.9,2,3.8,4.2c0,0.4-0.1,0.7-0.2,1.1
				c-0.7,2.8-1.5,5.6-2.2,8.4c-4.6,18-9.2,36-13.8,54l-3.5,13.7c-0.8,3.3-2,4.2-5.5,4.2H92.4c-3.1,0-4.4-1-5.1-3.9
				c-5.5-21.3-10.9-42.7-16.3-64c-1-4-2-8-3.1-12c-0.5-1.9-0.4-3.6,1.3-4.8c1.6-1.3,3.8-1.5,5.6-0.6c4.3,2.1,8.5,4.2,12.8,6.3
				c1.4,0.7,2.7,1.4,4.1,2c1.9,0.7,3.2,2.6,3,4.7c-0.1,6,0,12,0,17.8c-0.1,0.8,0.4,1.5,1.1,1.8c10.1,5.3,22.6-0.2,25.2-11.1
				c0-0.6-0.2-1.1-0.6-1.5c-3.5-3.5-7.1-6.9-10.7-10.4c-2.4-2.3-2.4-4.4,0-6.7c4.6-4.5,9.2-8.9,13.8-13.3c0.9-0.8,1.9-1.4,2.9-2.1
				L128.1,67.7z"/>
			<path class="st3" d="M126.6,191.3H92.3c-3.4,0-4.9-1.5-4.9-4.8c0-2.4-0.1-4.8,0-7.3c0-2.9,1.6-4.5,4.7-4.5c12.2,0,24.3,0,36.5,0
				h32.3c3.8,0,5.2,1.4,5.2,5c0,2.3,0,4.7,0,7c0,2.9-1.7,4.5-4.7,4.5L126.6,191.3z"/>
		</g>
	</g>
</g>
</svg>
